<svg xmlns="http://www.w3.org/2000/svg" viewBox="0 0 20.83211 31.18557"><defs><style>.a,.b{fill:none;stroke:#000;stroke-width:0.4px;}.a{stroke-miterlimit:10;opacity:0;}</style></defs><title>face</title><polyline class="a" points="18.045 12.004 17.102 11.178 15.333 10.746 13.564 11.375 12.542 12.397 13.839 13.026 15.765 13.497 17.298 13.222 17.848 12.711 16.551 12.004 16.158 12.711 15.254 12.908 14.468 12.279 14.665 11.453 15.883 11.453 15.451 12.357 14.979 12.004"/><polyline class="b" points="18.045 12.004 17.102 11.178 15.333 10.746 13.564 11.375 12.542 12.397 13.839 13.026 15.765 13.497 17.298 13.222 17.848 12.711 16.551 12.004 16.158 12.711 15.254 12.908 14.468 12.279 14.665 11.453 15.883 11.453 15.451 12.357 14.979 12.004"/><polyline class="a" points="1.772 12.161 3.069 11.178 4.248 10.942 6.096 11.493 7.432 12.436 6.096 13.026 4.248 13.497 2.991 13.183 2.283 12.475 3.384 11.571 3.58 12.24 4.091 12.75 4.917 12.633 5.506 12.043 4.484 11.414 4.091 12.043"/><polyline class="b" points="1.772 12.161 3.069 11.178 4.248 10.942 6.096 11.493 7.432 12.436 6.096 13.026 4.248 13.497 2.991 13.183 2.283 12.475 3.384 11.571 3.58 12.24 4.091 12.75 4.917 12.633 5.506 12.043 4.484 11.414 4.091 12.043"/><polyline class="a" points="9.437 23.678 8.376 24.149 5.585 23.52 6.882 24.385 9.987 24.66 12.542 24.267 14.625 24.031 13.918 25.564 11.835 25.84 9.987 26.233 8.297 26.233 6.764 25.84 5.506 25.486 5.192 24.267"/><polyline class="b" points="9.437 23.678 8.376 23.903 5.585 23.52 6.882 24.385 9.987 24.66 12.542 24.267 14.625 24.031 13.918 25.564 11.835 25.84 9.987 26.233 8.297 26.233 6.764 25.84 5.653 25.339 5.192 24.267"/><polyline class="a" points="8.493 12.397 7.825 15.934 7.078 17.192 6.45 18.646 6.764 19.708 8.1 19.826 9.201 20.651 9.987 20.808 10.852 19.944 12.424 19.944 13.21 19.079 13.014 18.057 12.345 17.114 11.835 15.856 11.324 14.559"/><polyline class="b" points="8.493 12.397 7.825 15.934 7.078 17.192 6.45 18.646 6.764 19.708 8.1 19.826 9.201 20.651 9.987 20.808 10.852 19.944 12.424 19.944 13.21 19.079 13.014 18.057 12.345 17.114 11.835 15.856 11.324 14.559"/><polyline class="a" points="0.16 7.759 1.3 6.226 0.75 5.322 0.75 2.885 1.3 0.251 4.484 1.155 5.939 0.762 8.1 1.823 11.481 1.155 13.014 1.587 14.979 0.605 16.551 1.155 19.656 1.587 19.656 4.024 18.674 5.675 18.674 7.012 20.05 7.012 20.639 9.174"/><polyline class="b" points="0.16 7.759 1.3 6.226 0.75 5.322 0.75 2.885 1.3 0.251 4.484 1.155 5.939 0.762 8.1 1.823 11.481 1.155 13.014 1.587 14.979 0.605 16.551 1.155 19.656 1.587 19.656 4.024 18.674 5.675 18.674 7.012 20.05 7.012 20.639 9.174"/><polyline class="a" points="0.475 8.741 1.772 7.759 2.637 7.759 4.799 8.741 6.764 9.174 8.1 9.999 8.493 10.589"/><polyline class="b" points="0.475 8.741 1.772 7.759 2.637 7.759 4.799 8.741 6.764 9.174 8.1 9.999 8.493 10.589"/><polyline class="a" points="20.05 9.174 18.87 8.584 17.691 7.759 15.883 8.23 12.739 9.331 11.835 9.331 11.166 9.999"/><polyline class="b" points="20.05 9.174 18.87 8.584 17.691 7.759 15.883 8.23 12.739 9.331 11.835 9.331 11.166 9.999"/><polyline class="a" points="19.342 19.944 18.438 23.009 17.298 24.464 16.551 24.267 17.102 21.988 15.883 20.376 13.839 20.14"/><polyline class="b" points="19.342 19.944 18.438 23.009 17.298 24.464 16.551 24.267 17.102 21.988 15.883 20.376 13.839 20.14"/><polyline class="a" points="0.75 18.057 3.069 24.857 3.384 24.267 3.069 22.813 3.934 21.005 5.939 20.376"/><polyline class="b" points="0.75 18.057 3.069 24.857 3.384 24.267 3.069 22.813 3.934 21.005 5.939 20.376"/><polyline class="a" points="14.468 31.067 15.333 29.888 17.691 26.94 19.106 22.813"/><polyline class="b" points="14.468 31.067 15.333 29.888 17.691 26.94 19.106 22.813"/></svg>