<?xml version="1.0" encoding="UTF-8"?>
<svg width="14px" height="14px" viewBox="0 0 14 14" version="1.1" xmlns="http://www.w3.org/2000/svg" xmlns:xlink="http://www.w3.org/1999/xlink">
    <!-- Generator: Sketch 49.1 (51147) - http://www.bohemiancoding.com/sketch -->
    <title>grid</title>
    <desc>Created with Sketch.</desc>
    <defs></defs>
    <g id="Page-1" stroke="none" stroke-width="1" fill="none" fill-rule="evenodd">
        <path d="M0,0 L4,0 L4,4 L0,4 L0,0 Z M0,5 L4,5 L4,9 L0,9 L0,5 Z M5,0 L9,0 L9,4 L5,4 L5,0 Z M5,5 L9,5 L9,9 L5,9 L5,5 Z M10,0 L14,0 L14,4 L10,4 L10,0 Z M10,5 L14,5 L14,9 L10,9 L10,5 Z M0,10 L4,10 L4,14 L0,14 L0,10 Z M5,10 L9,10 L9,14 L5,14 L5,10 Z M10,10 L14,10 L14,14 L10,14 L10,10 Z" id="grid" fill="#000000"></path>
    </g>
</svg>