<?xml version="1.0" encoding="UTF-8"?>
<svg width="20px" height="20px" viewBox="0 0 20 20" version="1.1" xmlns="http://www.w3.org/2000/svg" xmlns:xlink="http://www.w3.org/1999/xlink">
    <!-- Generator: Sketch 49.1 (51147) - http://www.bohemiancoding.com/sketch -->
    <title>grid</title>
    <desc>Created with Sketch.</desc>
    <defs></defs>
    <g id="Page-1" stroke="none" stroke-width="1" fill="none" fill-rule="evenodd">
        <path d="M0,0 L6,0 L6,6 L0,6 L0,0 Z M0,7 L6,7 L6,13 L0,13 L0,7 Z M7,0 L13,0 L13,6 L7,6 L7,0 Z M7,7 L13,7 L13,13 L7,13 L7,7 Z M14,0 L20,0 L20,6 L14,6 L14,0 Z M14,7 L20,7 L20,13 L14,13 L14,7 Z M0,14 L6,14 L6,20 L0,20 L0,14 Z M7,14 L13,14 L13,20 L7,20 L7,14 Z M14,14 L20,14 L20,20 L14,20 L14,14 Z" id="grid" fill="#000000"></path>
    </g>
</svg>